#N canvas 827 239 527 327 12;
#X obj 76 217 osc~;
#X obj 49 41 vsl 16 127 20 2000 0 0 empty empty empty 0 -9 0 10 #e4e4e4 #4d4d4d #373737 0 1;
#X obj 68 579 dac~;
#X obj 76 535 *~;
#X floatatom 123 501 5 0 0 0 - - - 0;
#X obj 180 62 osc~;
#X obj 125 148 *~;
#X floatatom 180 9 5 0 0 0 - - - 12;
#N canvas 0 50 450 250 (subpatch) 0;
#X array \$0-array 200 float 0;
#X coords 0 -1 199 1 200 100 1;
#X restore 420 148 graph;
#X obj 256 200 tabwrite~ \$0-array;
#X obj 266 135 tgl 19 0 empty empty empty 17 7 0 10 #dfdfdf #000000 #000000 0 1;
#X text 290 135 <-- graph;
#X obj 266 163 metro 40;
#X obj 300 9 vsl 17 128 1 2000 0 0 empty empty empty 0 -9 0 10 #e4e4e4 #4d4d4d #373737 0 1;
#X obj 128 358 vsl 17 128 0 1 0 0 empty empty empty 0 -9 0 10 #e4e4e4 #4d4d4d #373737 0 1;
#X text 155 455 volumen;
#X text 335 62 mod freq;
#X text 68 91 carrier freq;
#X obj 235 351 osc~;
#X floatatom 235 298 5 0 0 0 - - - 12;
#X obj 354 291 vsl 17 128 1 2000 0 0 empty empty empty 0 -9 0 10 #e4e4e4 #4d4d4d #373737 0 1;
#X obj 76 320 *~;
#X text 390 351 amp mod;
#X obj 498 472 osc.receive;
#X connect 0 0 9 0;
#X connect 0 0 21 0;
#X connect 1 0 6 0;
#X connect 3 0 2 1;
#X connect 3 0 2 0;
#X connect 4 0 3 1;
#X connect 5 0 6 1;
#X connect 6 0 0 0;
#X connect 7 0 5 0;
#X connect 10 0 12 0;
#X connect 12 0 9 0;
#X connect 13 0 7 0;
#X connect 14 0 4 0;
#X connect 18 0 21 1;
#X connect 19 0 18 0;
#X connect 20 0 19 0;
#X connect 21 0 3 0;
